<svg width="20" height="20" viewBox="0 0 20 20" fill="none" xmlns="http://www.w3.org/2000/svg">
<path d="M12.7907 7.54988L9.1163 11.735L7.25169 9.83923C7.12414 9.70952 6.91756 9.70952 6.79 9.83923C6.66245 9.96893 6.66245 10.179 6.79 10.3087L8.89884 12.4531C8.96001 12.5155 9.04316 12.5502 9.12979 12.5502C9.13284 12.5502 9.13589 12.5502 9.13894 12.55C9.22884 12.5474 9.31351 12.5075 9.37337 12.4393L13.278 7.99213C13.3982 7.85534 13.3864 7.6455 13.2519 7.52332C13.117 7.40136 12.911 7.41331 12.7907 7.54988Z" fill="#F79489"/>
<path d="M19.3232 9.99946C19.3294 9.97441 19.3337 9.94848 19.3337 9.92146C19.3337 9.04302 18.4148 8.58908 17.6038 8.18831C17.0281 7.904 16.4332 7.60979 16.2748 7.23913C16.1135 6.86077 16.3412 6.24424 16.561 5.6477C16.8677 4.8165 17.1846 3.95718 16.5998 3.37778C16.0264 2.80915 15.1879 3.00163 14.3767 3.18861C13.809 3.31912 13.2216 3.45381 12.8305 3.2899C12.4488 3.12972 12.1315 2.63316 11.8246 2.15241C11.3794 1.45612 10.8753 0.666672 10.0003 0.666672C9.12376 0.666672 8.62919 1.47326 8.19313 2.18515C7.89045 2.6793 7.57736 3.18992 7.19602 3.34988C6.80627 3.51357 6.21266 3.36526 5.63877 3.22222C4.82115 3.01876 3.97582 2.80739 3.40105 3.378C2.82029 3.95367 3.1017 4.81738 3.37424 5.65297C3.56878 6.24907 3.76976 6.8656 3.60712 7.24726C3.44847 7.61946 2.8799 7.91103 2.32972 8.19315C1.55043 8.59259 0.666992 9.04544 0.666992 9.9219C0.666992 9.94914 0.671424 9.97529 0.677628 10.0006C0.671424 10.0256 0.667214 10.0515 0.667214 10.0786C0.667214 10.955 1.55065 11.4079 2.33016 11.8073C2.8799 12.0892 3.44869 12.3808 3.60734 12.753C3.76998 13.1346 3.56901 13.7512 3.37446 14.3475C3.10214 15.1828 2.82051 16.0463 3.40105 16.6222C3.97627 17.1928 4.82159 16.9821 5.63899 16.778C6.2131 16.6352 6.80693 16.4873 7.19647 16.6508C7.57758 16.8105 7.89067 17.3212 8.19335 17.8151C8.62964 18.5267 9.12398 19.3333 10.0005 19.3333C10.8756 19.3333 11.3799 18.5439 11.8248 17.8476C12.1319 17.3669 12.4492 16.8703 12.8303 16.7101C13.223 16.5458 13.8093 16.6807 14.3767 16.8114C15.1875 16.9979 16.0264 17.1913 16.5994 16.6224C17.1848 16.0428 16.8677 15.1833 16.561 14.3523C16.341 13.7558 16.1135 13.1392 16.2745 12.7613C16.4332 12.3904 17.0281 12.0962 17.6038 11.8119C18.4145 11.4114 19.3337 10.9572 19.3337 10.0788C19.3339 10.0509 19.3294 10.0247 19.3232 9.99946ZM17.3075 11.2211C16.624 11.5588 15.9171 11.9082 15.6625 12.5038C15.3995 13.1212 15.6727 13.8619 15.9369 14.578C16.1824 15.2439 16.4146 15.8734 16.1294 16.1555C15.8172 16.4658 15.1901 16.3214 14.5269 16.1689C13.856 16.0147 13.1622 15.855 12.5715 16.1026C11.9987 16.343 11.6249 16.9283 11.2633 17.4943C10.8758 18.1007 10.5097 18.6735 10.0005 18.6735C9.49778 18.6735 9.14015 18.0899 8.76125 17.4721C8.40385 16.8887 8.03403 16.2854 7.45527 16.043C6.86033 15.793 6.15726 15.9683 5.47657 16.1382C4.80962 16.3041 4.17968 16.4618 3.87102 16.1555C3.57787 15.8651 3.78615 15.2261 4.00662 14.5496C4.23862 13.8388 4.47814 13.1036 4.21934 12.4957C3.96718 11.9042 3.29004 11.557 2.63527 11.2211C1.965 10.8777 1.33173 10.5531 1.33173 10.0779C1.33173 10.0507 1.3273 10.0245 1.32109 9.99902C1.3273 9.97397 1.33151 9.94804 1.33151 9.92102C1.33151 9.44576 1.96456 9.12124 2.63483 8.77782C3.28982 8.44209 3.96718 8.09493 4.21912 7.50301C4.47792 6.89527 4.23839 6.16031 4.0064 5.4493C3.78593 4.77278 3.57743 4.13384 3.87102 3.84315C4.17901 3.53708 4.80896 3.6944 5.47635 3.86073C6.1566 4.03013 6.85967 4.20613 7.45483 3.95608C8.03359 3.71352 8.40341 3.11017 8.76125 2.52681C9.13993 1.90874 9.49756 1.32517 10.0003 1.32517C10.5095 1.32517 10.8756 1.89798 11.2629 2.50462C11.6247 3.07062 11.9985 3.65595 12.5715 3.89654C13.1622 4.14416 13.856 3.98443 14.5269 3.82997C15.1901 3.67748 15.817 3.53313 16.1296 3.84359C16.4144 4.12549 16.1821 4.75476 15.9366 5.42095C15.6725 6.13724 15.3993 6.87791 15.6625 7.49554C15.9167 8.09098 16.6237 8.44033 17.3073 8.77804C18.0075 9.12388 18.6689 9.45082 18.6689 9.92102C18.6689 9.94826 18.6733 9.97441 18.6796 9.99967C18.6733 10.0247 18.6691 10.0507 18.6691 10.0777C18.6691 10.5485 18.0077 10.8753 17.3075 11.2211Z" fill="#F79489"/>
</svg>
