<svg width="16" height="20" viewBox="0 0 16 20" fill="none" xmlns="http://www.w3.org/2000/svg">
<path d="M14.912 10.8885L10.516 10.2396L8.55032 6.19236C8.50166 6.09192 8.40107 6.02835 8.29063 6.02835C8.18019 6.02835 8.0796 6.09192 8.03094 6.19236L6.06541 10.2396L1.66942 10.8885C1.56053 10.9046 1.46978 10.9823 1.43561 11.0889C1.40143 11.1954 1.43001 11.3125 1.50898 11.3906L4.68954 14.5408L3.93886 18.9892C3.92013 19.0997 3.96492 19.2113 4.05412 19.2772C4.14352 19.3429 4.26168 19.3516 4.35919 19.2996L8.29044 17.1992L12.2223 19.2996C12.2647 19.3221 12.3109 19.3333 12.357 19.3333C12.4171 19.3333 12.4767 19.3143 12.5273 19.2772C12.6165 19.2113 12.6611 19.0997 12.6426 18.9892L11.8911 14.5408L15.0721 11.3906C15.1511 11.3125 15.1794 11.1954 15.1455 11.0889C15.1117 10.9823 15.0209 10.9046 14.912 10.8885ZM11.3783 14.2273C11.31 14.295 11.2789 14.3923 11.2949 14.4878L11.9728 18.5009L8.42559 16.6061C8.34102 16.5612 8.24043 16.5612 8.15606 16.6061L4.60941 18.5009L5.28654 14.4878C5.30256 14.3923 5.27148 14.295 5.20313 14.2273L2.334 11.3855L6.29981 10.8001C6.39403 10.7861 6.4757 10.7259 6.51779 10.6392L8.29102 6.98811L10.0644 10.6392C10.1065 10.7259 10.1882 10.7861 10.2824 10.8001L14.2482 11.3855L11.3783 14.2273Z" fill="#F79489"/>
<path d="M3.2712 7.61701C3.37587 7.61701 3.47626 7.55571 3.52358 7.45131C3.58871 7.30764 3.5284 7.13657 3.38904 7.06933L0.463162 5.65809C0.324171 5.59123 0.158271 5.6533 0.0931362 5.79697C0.0280012 5.94064 0.0883113 6.11171 0.227674 6.17895L3.15355 7.59019C3.1916 7.60839 3.23168 7.61701 3.2712 7.61701Z" fill="#F79489"/>
<path d="M15.9073 5.79697C15.842 5.6533 15.6761 5.59123 15.5373 5.65809L12.6114 7.06933C12.472 7.13676 12.4119 7.30764 12.4768 7.45131C12.5242 7.55571 12.6246 7.61701 12.7292 7.61701C12.7688 7.61701 12.8088 7.60839 12.8469 7.59L15.7728 6.17876C15.9123 6.11171 15.9725 5.94064 15.9073 5.79697Z" fill="#F79489"/>
<path d="M8.29024 4.63829C8.45046 4.63829 8.58049 4.50716 8.58049 4.34558V0.959363C8.58049 0.797594 8.45046 0.666656 8.29024 0.666656C8.13003 0.666656 8 0.797594 8 0.959363V4.34558C8 4.50716 8.13003 4.63829 8.29024 4.63829Z" fill="#F79489"/>
</svg>
