<svg width="22" height="20" viewBox="0 0 22 20" fill="none" xmlns="http://www.w3.org/2000/svg">
<path d="M18.817 12.921L16.0876 11.1186C15.9386 11.0202 15.7369 11.0615 15.6383 11.2121C15.5399 11.3625 15.5816 11.5648 15.7312 11.6634L17.9874 13.1533L8.52605 16.53L1.77781 12.0433L5.63558 10.6325C5.80383 10.571 5.89098 10.3839 5.82935 10.2146C5.76815 10.0455 5.58174 9.95796 5.41371 10.0199L0.945873 11.6539C0.782817 11.7134 0.69718 11.891 0.748 12.0559V13.9931C0.748 14.0311 0.755785 14.0669 0.767679 14.1008C0.769841 14.2041 0.820445 14.3045 0.91257 14.3657L8.30288 19.2792C8.35802 19.3157 8.4203 19.3333 8.48172 19.3333C8.54595 19.3333 8.60801 19.312 8.66208 19.2757L18.8419 15.6429C18.9617 15.6001 19.0397 15.4934 19.054 15.3745C19.072 15.3341 19.0823 15.2895 19.0823 15.2424V13.2411C19.0821 13.0814 18.9677 12.9491 18.817 12.921ZM1.39677 12.5718L8.15755 17.0667V18.4008L1.39677 13.9059V12.5718ZM8.80632 17.1217L18.4336 13.686V15.0966L8.80632 18.5323V17.1217Z" fill="#F79489"/>
<path d="M21.2669 6.01042C21.2669 5.84775 21.1527 5.71278 21.002 5.68419L13.6855 0.720561C13.6796 0.716572 13.6731 0.714355 13.6673 0.71081C13.6573 0.705047 13.6476 0.699285 13.637 0.694631C13.6271 0.690199 13.6171 0.686653 13.6072 0.683329C13.5974 0.680004 13.5879 0.676902 13.578 0.674685C13.5672 0.672248 13.5564 0.670696 13.5453 0.669366C13.5356 0.668258 13.5259 0.666929 13.5159 0.666707C13.5047 0.666485 13.4936 0.66715 13.4824 0.668037C13.4727 0.668702 13.4629 0.669588 13.453 0.671139C13.4415 0.673134 13.4303 0.676237 13.419 0.679561C13.4123 0.681556 13.4056 0.68222 13.3989 0.684437L3.13405 4.38749C2.96819 4.44733 2.88039 4.63128 2.93337 4.8017V6.77457C2.93337 6.81224 2.94072 6.84792 2.95218 6.88161C2.9537 6.98777 3.00452 7.09148 3.09729 7.15442L10.4861 12.167C10.5412 12.2043 10.6033 12.2222 10.6649 12.2222C10.7293 12.2222 10.7916 12.2005 10.8457 12.163L21.0254 8.46021C21.1447 8.41677 21.2224 8.30885 21.2373 8.18828C21.2559 8.1464 21.2669 8.10008 21.2669 8.0511V6.01042ZM13.4621 1.36636L20.1742 5.92L10.7092 9.36265L3.96985 4.79062L13.4621 1.36636ZM3.58211 5.32495L10.3407 9.91005V11.2708L3.58211 6.6857V5.32495ZM10.9895 9.96612L20.6182 6.46386V7.90239L10.9895 11.4049V9.96612Z" fill="#F79489"/>
</svg>
