<svg width="18" height="20" viewBox="0 0 18 20" fill="none" xmlns="http://www.w3.org/2000/svg">
<path d="M17.1547 2.32348H15.1407V1.96413C15.1407 1.24866 14.5624 0.666672 13.8517 0.666672C13.1389 0.666672 12.5591 1.24891 12.5591 1.96413V2.32348H10.3502V1.96413C10.3502 1.24866 9.77113 0.666672 9.05949 0.666672C8.34686 0.666672 7.76705 1.24891 7.76705 1.96413V2.32348H5.55819V1.96413C5.55819 1.24866 4.97912 0.666672 4.26748 0.666672C3.55559 0.666672 2.97651 1.24891 2.97651 1.96413V2.32348H0.969718C0.765441 2.32348 0.600098 2.4899 0.600098 2.69496V18.9619C0.600098 19.1669 0.765441 19.3333 0.969718 19.3333H17.1549C17.3592 19.3333 17.5245 19.1669 17.5245 18.9619V2.69496C17.5243 2.4899 17.359 2.32348 17.1547 2.32348ZM13.2981 1.96413C13.2981 1.65853 13.5464 1.40963 13.8515 1.40963C14.1546 1.40963 14.4012 1.65853 14.4012 1.96413V3.69523C14.4012 4.00108 14.1546 4.24998 13.8515 4.24998C13.5464 4.24998 13.2981 4.00108 13.2981 3.69523V1.96413ZM8.50629 1.96413C8.50629 1.65853 8.75443 1.40963 9.05949 1.40963C9.36356 1.40963 9.61096 1.65853 9.61096 1.96413V3.69523C9.61096 4.00108 9.36356 4.24998 9.05949 4.24998C8.75443 4.24998 8.50629 4.00108 8.50629 3.69523V1.96413ZM3.71575 1.96413C3.71575 1.65853 3.96315 1.40963 4.26748 1.40963C4.57155 1.40963 4.81895 1.65853 4.81895 1.96413V3.69523C4.81895 4.00108 4.57155 4.24998 4.26748 4.24998C3.9634 4.24998 3.71575 4.00108 3.71575 3.69523V1.96413ZM16.7851 18.5901H1.33909V3.06619H2.97627V3.69498C2.97627 4.4107 3.55534 4.99269 4.26723 4.99269C4.97887 4.99269 5.55794 4.41046 5.55794 3.69498V3.06619H7.7668V3.69498C7.7668 4.4107 8.34661 4.99269 9.05924 4.99269C9.77088 4.99269 10.35 4.41046 10.35 3.69498V3.06619H12.5588V3.69498C12.5588 4.4107 13.1389 4.99269 13.8515 4.99269C14.5624 4.99269 15.1405 4.41046 15.1405 3.69498V3.06619H16.7848V18.5901H16.7851Z" fill="#F79489"/>
<path d="M12.6545 8.25739L8.53926 12.9447L6.4509 10.8215C6.30804 10.6762 6.07667 10.6762 5.93381 10.8215C5.79094 10.9667 5.79094 11.202 5.93381 11.3473L8.29571 13.7489C8.36421 13.8189 8.45734 13.8578 8.55437 13.8578C8.55779 13.8578 8.5612 13.8578 8.56461 13.8575C8.6653 13.8546 8.76014 13.8099 8.82718 13.7336L13.2004 8.7527C13.335 8.5995 13.3218 8.36448 13.1711 8.22764C13.02 8.09105 12.7894 8.10443 12.6545 8.25739Z" fill="#F79489"/>
</svg>
